<svg width="13" height="13" viewBox="0 0 13 13" fill="none" xmlns="http://www.w3.org/2000/svg">
<path d="M6 5.06L1.14 0.199999C1.01246 0.0907816 0.848414 0.0337118 0.68063 0.0401926C0.512846 0.0466733 0.353686 0.116227 0.234957 0.234957C0.116227 0.353687 0.0466718 0.512847 0.040191 0.680631C0.0337103 0.848415 0.0907813 1.01246 0.199999 1.14L5.06 6L0.193332 10.86C0.0841145 10.9875 0.0270441 11.1516 0.0335248 11.3194C0.0400056 11.4872 0.10956 11.6463 0.22829 11.765C0.34702 11.8838 0.506179 11.9533 0.673963 11.9598C0.841747 11.9663 1.0058 11.9092 1.13333 11.8L6 6.94L10.86 11.8067C10.9198 11.8765 10.9933 11.9331 11.076 11.9732C11.1587 12.0132 11.2488 12.0357 11.3406 12.0392C11.4324 12.0427 11.524 12.0273 11.6095 11.9938C11.6951 11.9602 11.7728 11.9094 11.8378 11.8444C11.9027 11.7795 11.9536 11.7018 11.9871 11.6162C12.0206 11.5307 12.0361 11.4391 12.0325 11.3473C12.029 11.2555 12.0065 11.1654 11.9665 11.0827C11.9265 11 11.8698 10.9264 11.8 10.8667L6.94 6L11.8 1.14C11.9092 1.01246 11.9663 0.848415 11.9598 0.680631C11.9533 0.512847 11.8838 0.353687 11.765 0.234957C11.6463 0.116227 11.4872 0.0466733 11.3194 0.0401926C11.1516 0.0337118 10.9875 0.0907816 10.86 0.199999L6 5.06Z" fill="black"/>
</svg>
